<?xml version="1.0" encoding="utf-8"?>
<!DOCTYPE svg PUBLIC "-//W3C//DTD SVG 1.1//EN" "http://www.w3.org/Graphics/SVG/1.1/DTD/svg11.dtd">
<svg version="1.1" xmlns="http://www.w3.org/2000/svg" xmlns:xlink="http://www.w3.org/1999/xlink" x="0px" y="0px" width="1024px" height="1024px" viewBox="0 0 1024 1024" enable-background="new 0 0 1024 1024" xml:space="preserve">
<metadata> Free Icon Download -- www.onlinewebfonts.com </metadata>

  <path d="M1023.787136 712.343443c0-139.433018 0-278.908472 0-418.34179 0-29.692034 0-59.393399 0-89.085734 0.000301-19.907652 0.942322-40.654997-2.708688-57.18341-10.229811-46.309232-31.745822-82.414236-63.503682-107.143653C934.908767 22.939347 909.64333 10.308736 876.31413 2.968191c-19.092036-4.204786-44.045672-2.710795-66.8143-2.708688-37.917717 0-75.847172 0-113.76489 0C520.691104 0.259504 345.593997 0.259504 170.550462 0.259504c-5.717739 0.601931-11.437284 1.203861-17.155023 1.805792-12.074729 2.42879-23.783784 4.588216-34.310046 8.727994C76.366075 27.594077 45.40788 54.615345 23.378422 92.053925 12.40312 110.706251 6.338067 132.167787 1.70892 157.363399c-2.668058 14.523382-1.205667 32.758871-1.203861 49.057347 0 29.491591 0 58.992513 0 88.483803 0 134.517953 0 269.076838 0 403.59449 0 33.604282 0 67.2194 0 100.823381-0.000301 39.999194-0.443623 77.507598 10.533786 105.638826 21.014903 53.854132 60.166277 93.214075 117.075508 111.056202 24.659894 7.731197 56.175778 7.527444 89.386699 7.524133 30.293965 0 60.59726 0 90.891526 0 118.167109 0 236.370034 0 354.537143 0 45.54147 0 91.096784 0 136.638254 0 25.705749 0.000602 54.955063 2.104951 76.746156-2.708688 31.700677-7.002861 56.379532-18.674898 78.250982-35.212942 31.743113-24.001984 54.190009-58.901019 65.309474-103.532069 4.752242-19.073677 3.914957-43.320346 3.912549-67.115266C1023.787136 780.766403 1023.787136 746.549656 1023.787136 712.343443zM838.693466 850.787489c0.401187 0.401488 0.802675 0.802975 1.203861 1.203861-46.644809 0-93.304064 0-139.948872 0-61.792092-83.760453-123.602844-167.545285-185.394635-251.30604-0.200744-0.09992-0.401187-0.200443-0.601931-0.300965-62.193279 83.660232-124.405218 167.345143-186.598496 251.005074-5.260874 2.355656-30.009854 0.601931-37.92163 0.601931-30.59493 0-61.199491 0-91.794422 0 0-0.09992 0-0.200443 0-0.300965 84.964014-108.637344 169.95361-217.307493 254.917623-325.945438 0.401187-0.400886 0.802675-0.802374 1.203861-1.203861-84.562827-109.740983-169.150935-219.514772-253.713762-329.256057 46.444366 0 92.902576 0 139.346942 0 61.591348 82.556893 123.201356 165.137864 184.792705 247.694456 0.100221 0 0.200744 0 0.300965 0 61.792092-82.355848 123.602844-164.736376 185.394635-247.092525 2.1826-1.886752 28.197742-0.601931 33.40715-0.601931 32.199978 0 64.409888 0 96.609867 0-85.967131 107.634828-171.960145 215.301258-257.927277 322.935785 0 0.201045 0 0.401488 0 0.601931C667.535995 629.466925 753.127521 740.143911 838.693466 850.787489z" />


</svg>