<svg xmlns="http://www.w3.org/2000/svg" width="512" height="512">

<path
     d="m 395.6339,96.520218 c -17.47391,-4.16429 -35.30229,-4.8965 -52.99756,-2.2039 -18.34722,2.80727 -35.70541,9.185282 -51.61235,18.974192 L 75.898552,245.6757 c -15.902425,9.78613 -29.425733,22.40592 -40.18801,37.51846 -10.385218,14.58153 -17.76301,30.83148 -21.920009,48.30713 -4.1642909,17.47391 -4.8964896,35.30229 -2.201121,53.00209 2.801707,18.33819 9.180769,35.70818 18.961338,51.60157 9.791688,15.91145 22.405919,29.42573 37.522972,40.18522 14.581524,10.38522 30.825924,17.75398 48.309918,21.92454 17.47113,4.15979 35.29951,4.89199 52.99652,2.19209 18.33993,-2.80902 35.70644,-9.17348 51.60887,-18.95961 18.58596,-11.43754 34.37577,-27.27709 45.6562,-45.82901 7.57971,-12.4502 13.17091,-26.16814 16.52549,-40.40318 l 47.93315,-29.49739 c 14.22393,3.41748 28.99415,4.60528 43.51971,3.4522 21.64656,-1.71711 42.90494,-8.67027 61.48186,-20.10225 15.90694,-9.78891 29.42017,-22.41495 40.18696,-37.53027 10.38349,-14.57423 17.75676,-30.82141 21.91655,-48.29254 4.15873,-17.48295 4.90271,-35.31237 2.19835,-53.00661 -2.80175,-18.33818 -9.17978,-35.69636 -18.96868,-51.6033 -9.78611,-15.90242 -22.3986,-29.42399 -37.51565,-40.18349 -14.56068,-10.39182 -30.81064,-17.76962 -48.28907,-21.931132 z m 21.456,221.626922 c -28.44365,17.50383 -62.11677,19.38429 -90.98303,8.02325 l -75.97925,46.75657 c -2.8663,30.88881 -19.71499,60.09877 -48.16316,77.60538 C 153.93643,480.08811 91.046054,465.11814 61.484713,417.08107 31.928937,369.05305 46.905168,306.15259 94.928681,276.59959 L 310.05412,144.2144 c 48.03706,-29.56133 110.93753,-14.5851 140.4933,33.44292 29.5495,48.03811 14.57954,110.92849 -33.45752,140.48982 z"
     id="path3" />
  <circle
     cx="73.712997"
     cy="72.796997"
     r="3.849"
     transform="matrix(4.5177337,-2.7801502,2.7801502,4.5177337,-150.42591,142.01856)"
     id="circle5" />
  <circle
     cx="81.414001"
     cy="65.097"
     r="3.8499999"
     transform="matrix(4.5177337,-2.7801502,2.7801502,4.5177337,-150.42591,142.01856)"
     id="circle7" />
  <circle
     cx="66.014999"
     cy="65.097"
     r="3.8499999"
     transform="matrix(4.5177337,-2.7801502,2.7801502,4.5177337,-150.42591,142.01856)"
     id="circle9" />
  <circle
     cx="73.712997"
     cy="57.397999"
     r="3.849"
     transform="matrix(4.5177337,-2.7801502,2.7801502,4.5177337,-150.42591,142.01856)"
     id="circle11" />
  <path
     d="m 181.2234,319.40923 -26.08991,16.05536 -16.04981,-26.08087 c -2.95252,-4.79784 -9.24608,-6.30015 -14.04391,-3.34763 l -17.39327,10.70358 c -4.80235,2.9553 -6.30015,9.24607 -3.34485,14.04842 l 16.04981,26.08088 -26.085397,16.05259 c -4.802355,2.9553 -6.295631,9.24329 -3.337554,14.05016 l 10.703581,17.39327 c 2.9553,4.80235 9.24885,6.30467 14.04669,3.35215 l 26.08539,-16.05259 16.04981,26.08088 c 2.95808,4.80687 9.24607,6.30015 14.04843,3.34485 l 17.39327,-10.70358 c 4.80235,-2.9553 6.30119,-9.23426 3.34033,-14.04565 l -16.04981,-26.08088 26.08992,-16.05536 c 4.80235,-2.9553 6.30014,-9.24607 3.34207,-14.05294 L 195.2746,322.75859 c -2.95808,-4.80687 -9.25337,-6.30188 -14.0512,-3.34936 z"
     id="path13" />
  <path
     d="m 212.27599,83.108638 83.03143,-51.09639 c 43.76328,-26.93131 57.4617,-84.44871 30.5276,-128.21651 l -30.92389,19.03012 c 16.44182,26.71788 8.07778,61.83078 -18.63558,78.26981 l -83.02691,51.0936 c -43.7678,26.93409 -57.4617,84.448722 -30.5276,128.216522 l 30.91937,-19.02735 c -16.44354,-26.71058 -8.07777,-61.830772 18.63558,-78.269802 z"
     id="path15" />

</svg>