<?xml version="1.0" encoding="utf-8"?>
<!-- Generator: Adobe Illustrator 15.0.2, SVG Export Plug-In . SVG Version: 6.00 Build 0)  -->
<!DOCTYPE svg PUBLIC "-//W3C//DTD SVG 1.1//EN" "http://www.w3.org/Graphics/SVG/1.1/DTD/svg11.dtd">
<svg version="1.1" id="Layer_1" xmlns="http://www.w3.org/2000/svg" xmlns:xlink="http://www.w3.org/1999/xlink" x="0px" y="0px"
	 width="512px" height="515.586px" viewBox="0 0 512 515.586" enable-background="new 0 0 512 515.586" xml:space="preserve">
<path d="M512,98.818L394.375,0.131l-32.9,39.168L479.1,137.986L512,98.818z M150.525,39.175L117.631,0L0,98.693l32.895,39.168
	L150.525,39.175z M268.8,157.188h-38.4V310.79l121.475,73.088l19.325-31.612L268.8,291.59V157.188L268.8,157.188z M255.875,54.787
	c-127.361,0-230.275,103.169-230.275,230.4c0,127.226,102.914,230.399,230.275,230.399c127.35,0,230.525-103.176,230.525-230.399
	C486.4,157.956,383.225,54.787,255.875,54.787z M256,464.387c-98.943,0-179.2-80.248-179.2-179.199
	c0-98.942,80.257-179.199,179.2-179.199c98.95,0,179.2,80.257,179.2,179.199C435.2,384.139,355.075,464.387,256,464.387z"/>
</svg>
